
<svg version="1.0" 
 width="512.000000pt" height="512.000000pt" viewBox="0 0 512.000000 512.000000"
 >

<g transform="translate(0.000000,512.000000) scale(0.100000,-0.100000)"
fill="#000000" stroke="none">
<path d="M1310 5109 c-231 -30 -447 -114 -639 -250 -107 -75 -301 -267 -392
-389 -127 -169 -212 -359 -256 -576 -17 -83 -18 -173 -18 -1334 0 -1161 1
-1251 18 -1334 64 -313 201 -552 460 -802 185 -180 353 -284 564 -353 213 -69
134 -66 1513 -66 1161 0 1251 1 1334 18 295 60 516 179 745 402 259 251 394
489 458 801 17 83 18 173 18 1334 0 1161 -1 1251 -18 1334 -64 312 -199 550
-458 801 -224 217 -429 330 -721 398 -92 21 -106 21 -1318 23 -674 1 -1254 -2
-1290 -7z m2491 -404 c154 -27 307 -91 425 -178 82 -60 228 -206 293 -292 70
-93 145 -249 173 -360 l23 -90 0 -1225 0 -1225 -23 -89 c-27 -108 -95 -254
-159 -345 -57 -79 -223 -246 -307 -308 -118 -87 -271 -151 -425 -178 -125 -22
-2357 -22 -2482 0 -155 27 -310 92 -425 178 -84 64 -230 209 -293 292 -70 93
-145 249 -173 360 l-23 90 0 1225 0 1225 23 89 c27 108 95 254 159 345 56 78
223 246 308 309 113 83 271 150 418 177 113 21 2372 21 2488 0z"/>
<path d="M2696 3538 c-57 -16 -120 -82 -135 -142 -26 -105 -11 -129 262 -403
l232 -233 -760 0 c-713 0 -762 -2 -800 -19 -132 -59 -162 -225 -58 -323 63
-60 32 -58 860 -58 l758 0 -232 -232 c-127 -128 -238 -246 -246 -263 -41 -83
-27 -165 38 -230 66 -67 149 -79 235 -35 19 10 222 207 452 437 435 437 438
440 438 523 0 83 -3 86 -438 523 -230 230 -433 427 -454 437 -47 25 -103 32
-152 18z"/>
</g>
</svg>
