
<svg version="1.0" xmlns="http://www.w3.org/2000/svg"
 width="512.000000pt" height="512.000000pt" viewBox="0 0 512.000000 512.000000"
 preserveAspectRatio="xMidYMid meet">

<g transform="translate(0.000000,512.000000) scale(0.100000,-0.100000)"
fill="#000000" stroke="none">
<path d="M3569 3657 c-20 -12 -139 -132 -265 -267 -468 -502 -714 -761 -915
-964 -197 -199 -207 -208 -230 -196 -13 7 -154 143 -313 302 -172 173 -302
296 -322 304 -43 18 -96 18 -139 0 -39 -17 -189 -157 -229 -215 -35 -50 -43
-123 -19 -173 26 -52 918 -963 965 -984 52 -23 122 -20 168 8 43 26 1676 1744
1703 1791 21 40 22 118 1 160 -19 39 -198 223 -236 243 -42 22 -127 18 -169
-9z"/>
</g>
</svg>
