
<svg version="1.0" xmlns="http://www.w3.org/2000/svg"
 width="512.000000pt" height="512.000000pt" viewBox="0 0 512.000000 512.000000"
 preserveAspectRatio="xMidYMid meet">

<g transform="translate(0.000000,512.000000) scale(0.100000,-0.100000)"
fill="#000000" stroke="none">
<path d="M1475 3871 c-50 -31 -233 -225 -240 -254 -20 -77 -27 -69 483 -579
l477 -478 -477 -477 c-510 -511 -503 -503 -483 -580 9 -37 231 -259 268 -268
77 -20 69 -27 579 483 l478 477 478 -477 c510 -510 502 -503 579 -483 37 9
259 231 268 268 20 77 27 69 -483 580 l-477 477 477 478 c510 510 503 502 483
579 -9 37 -231 259 -268 268 -77 20 -69 27 -580 -483 l-477 -477 -473 472
c-259 260 -485 477 -500 482 -42 16 -78 13 -112 -8z"/>
</g>
</svg>
