<svg width="15" height="13" viewBox="0 0 15 13" fill="none" xmlns="http://www.w3.org/2000/svg">
<path id="Vector" d="M12.4701 2.40342L12.4695 2.40286C12.159 2.09844 11.7928 1.85652 11.391 1.69025L11.3901 1.68987C10.9731 1.51665 10.5258 1.42799 10.0743 1.42903L10.0726 1.42903C9.43709 1.42903 8.81835 1.60299 8.28127 1.93063L8.28125 1.93064C8.15274 2.00904 8.03118 2.09481 7.91631 2.18798L7.46596 2.55326L7.01561 2.18798C6.90074 2.09481 6.77918 2.00904 6.65067 1.93064L6.65065 1.93063C6.11357 1.60299 5.49483 1.42903 4.85929 1.42903C4.40036 1.42903 3.95896 1.51662 3.54186 1.68987L3.54109 1.69019C3.13759 1.85725 2.77466 2.09703 2.46218 2.40307L2.46121 2.40403L2.46121 2.40403C2.15201 2.70572 1.905 3.06515 1.7342 3.46194L12.4701 2.40342ZM12.4701 2.40342C12.7792 2.70577 13.0264 3.06548 13.1979 3.46242C13.3755 3.87533 13.4656 4.31151 13.4644 4.76122V4.76325C13.4644 5.18297 13.3787 5.63586 13.196 6.11354L13.1954 6.11516C13.0442 6.51337 12.8185 6.94072 12.5208 7.38514C12.05 8.08713 11.3894 8.83793 10.5485 9.61433C9.14924 10.9051 7.76235 11.7977 7.71588 11.8275L7.71575 11.8276L7.46518 11.9883L7.21462 11.8276L7.21469 11.8275L7.20339 11.8206C7.20377 11.8208 7.20328 11.8205 7.2019 11.8196C7.19615 11.8159 7.17501 11.8024 7.13709 11.7775C7.09265 11.7483 7.02948 11.7062 6.95023 11.6523C6.79169 11.5443 6.5696 11.3893 6.30493 11.1944C5.77448 10.8039 5.07862 10.2578 4.38216 9.61459L4.38208 9.61452M12.4701 2.40342L4.38208 9.61452M4.38208 9.61452C3.54118 8.83818 2.88067 8.08743 2.40979 7.38549L4.38208 9.61452ZM1.46601 4.76325C1.46601 4.31201 1.55644 3.87502 1.73417 3.462L1.73436 6.11349C1.55169 5.63583 1.46601 5.18296 1.46601 4.76325ZM2.40955 7.38514C2.11279 6.9421 1.88785 6.51411 1.73438 6.11354L2.40955 7.38514Z" stroke="#888888" stroke-width="1.42981"/>
</svg>
