
<svg version="1.0" xmlns="http://www.w3.org/2000/svg"
 width="512.000000pt" height="512.000000pt" viewBox="0 0 512.000000 512.000000"
 preserveAspectRatio="xMidYMid meet">

<g transform="translate(0.000000,512.000000) scale(0.100000,-0.100000)"
fill="#000000" stroke="none">
<path d="M1310 5109 c-231 -30 -447 -114 -639 -250 -107 -75 -301 -267 -392
-389 -127 -169 -212 -359 -256 -576 -17 -83 -18 -173 -18 -1334 0 -1161 1
-1251 18 -1334 64 -313 201 -552 460 -802 185 -180 353 -284 564 -353 213 -69
134 -66 1513 -66 1161 0 1251 1 1334 18 295 60 516 179 745 402 259 251 394
489 458 801 17 83 18 173 18 1334 0 1161 -1 1251 -18 1334 -64 312 -199 550
-458 801 -224 217 -429 330 -721 398 -92 21 -106 21 -1318 23 -674 1 -1254 -2
-1290 -7z m2491 -404 c154 -27 307 -91 425 -178 82 -60 228 -206 293 -292 70
-93 145 -249 173 -360 l23 -90 0 -1225 0 -1225 -23 -89 c-27 -108 -95 -254
-159 -345 -57 -79 -223 -246 -307 -308 -118 -87 -271 -151 -425 -178 -125 -22
-2357 -22 -2482 0 -155 27 -310 92 -425 178 -84 64 -230 209 -293 292 -70 93
-145 249 -173 360 l-23 90 0 1225 0 1225 23 89 c27 108 95 254 159 345 56 78
223 246 308 309 113 83 271 150 418 177 113 21 2372 21 2488 0z"/>
<path d="M2320 3541 c-60 -19 -106 -61 -502 -458 -435 -437 -438 -440 -438
-523 0 -83 3 -86 438 -523 230 -230 433 -427 452 -437 86 -44 169 -32 235 35
65 65 79 147 38 230 -8 17 -119 135 -246 263 l-232 232 758 0 c828 0 797 -2
860 58 43 41 60 81 60 142 0 61 -17 101 -60 142 -63 60 -32 58 -860 58 l-758
0 232 233 c227 228 254 260 267 323 19 88 -55 199 -146 222 -52 13 -62 14 -98
3z"/>
</g>
</svg>
